<svg width="32" height="32" viewBox="0 0 32 32" fill="none" xmlns="http://www.w3.org/2000/svg">
<g clip-path="url(#clip0_7_5952)">
<rect width="32" height="32" rx="5" fill="#146FF4"/>
<path d="M12.6478 19.3706C12.997 18.6434 13.8908 18 15.2176 18C17.6197 18 18.0527 19.972 18.0527 20.7972V25.7167L20.3996 22.0419L18.0952 18.1678H20.7907L21.9359 20.5594L23.0811 18.1678H25.7765L23.4721 22.0419L26 26H23.2766L21.9359 23.5245L20.5951 26L15.7343 26V21.6783C15.7343 20.4476 15.3153 20.056 14.5891 20.056C13.6115 20.056 13.1785 20.8811 13.1785 22.0979V26H10.8741V21.6783C10.8741 20.4476 10.4552 20.056 9.72892 20.056C8.75132 20.056 8.31836 20.8951 8.31836 22.0979V26H6V18.1678H7.84353L7.96921 19.2028H8.01112C8.54182 18.3636 9.296 18 10.2596 18C11.4468 18 12.2428 18.6154 12.6059 19.3706H12.6478Z" fill="white"/>
</g>
<defs>
<clipPath id="clip0_7_5952">
<rect width="32" height="32" fill="white"/>
</clipPath>
</defs>
</svg>
